#!OML:ASF H:\MichaelJackson\Top Level 1\Subject 1\Session 1\male.ASF
:FULLY-SPECIFIED
:DEGREES
622
root 4.74731 16.7167 -10.3806 13.4831 11.8304 3.93241
lowerback 2.8276 -3.22177 -2.0819
upperback 2.58513 -4.30961 -1.41024
thorax 1.11561 -2.16827 -0.207292
lowerneck -6.06324 -1.29172 2.8819
upperneck -0.813842 -1.9436 2.16553
head 0.744245 -0.947343 0.141115
rclavicle -1.98785e-016 1.15295e-014
rhumerus -57.6713 -16.9131 -69.9169
rradius 53.0589
rwrist -9.16169
rhand -38.3596 -41.2706
rfingers 7.12502
rthumb -11.3861 -70.9414
lclavicle -1.98785e-016 1.15295e-014
lhumerus -6.65028 1.16188 72.8454
lradius 107.047
lwrist 47.0249
lhand 1.84082 10.3918
lfingers 7.12502
lthumb 27.3523 38.4271
rfemur -54.93 -3.37286 17.6409
rtibia 40.8144
rfoot -7.82862 -5.86781
rtoes -2.52518
lfemur -9.88473 11.5841 -28.6006
ltibia 26.1201
lfoot -30.0292 -17.554
ltoes 22.0176
623
root 4.75447 16.6818 -10.1878 13.6722 11.9844 4.06015
lowerback 2.61187 -3.19319 -2.15438
upperback 2.53674 -4.26762 -1.40781
thorax 1.1914 -2.14873 -0.177044
lowerneck -6.01442 -1.40258 2.80215
upperneck -1.02735 -2.07934 2.28164
head 0.670818 -1.01788 0.188138
rclavicle -9.74045e-015 3.37934e-014
rhumerus -57.7507 -17.5735 -69.5245
rradius 53.9738
rwrist -8.83994
rhand -39.3139 -44.3436
rfingers 7.12502
rthumb -12.3063 -73.9614
lclavicle -9.74045e-015 3.37934e-014
lhumerus -7.22551 0.597315 72.9485
lradius 108.095
lwrist 45.8357
lhand 3.95104 9.71871
lfingers 7.12502
lthumb 29.369 37.4184
rfemur -54.0309 -2.21582 16.5091
rtibia 37.3384
rfoot -8.37772 -6.68304
rtoes -3.70485
lfemur -9.02074 11.3905 -28.5092
ltibia 25.5502
lfoot -30.2998 -17.3349
ltoes 22.3428
624
root 4.76106 16.6466 -9.9948 13.802 12.0808 4.168
lowerback 2.45174 -3.14545 -2.22387
upperback 2.50457 -4.20109 -1.3982
thorax 1.25272 -2.11694 -0.138298
lowerneck -5.96299 -1.50997 2.74112
upperneck -1.23194 -2.21113 2.33728
head 0.599323 -1.08715 0.213771
rclavicle 5.65542e-014 -5.1684e-015
rhumerus -57.8405 -18.0921 -69.2351
rradius 54.8405
rwrist -8.61387
rhand -39.8883 -46.3981
rfingers 7.12502
rthumb -12.8601 -75.9819
lclavicle 5.65542e-014 -5.1684e-015
lhumerus -7.85608 0.155261 73.0929
lradius 108.906
lwrist 44.8388
lhand 5.09027 9.32622
lfingers 7.12502
lthumb 30.4561 36.8299
rfemur -53.1745 -0.828712 15.2171
rtibia 34.2571
rfoot -8.84205 -7.62134
rtoes -4.4292
lfemur -8.08178 11.0712 -28.4046
ltibia 24.9486
lfoot -30.5245 -16.9224
ltoes 22.6029
625
root 4.7671 16.6109 -9.80126 13.8462 12.1283 4.25478
lowerback 2.3653 -3.0817 -2.28657
upperback 2.49403 -4.11471 -1.38613
thorax 1.29432 -2.07511 -0.0970197
lowerneck -5.90846 -1.60796 2.70885
upperneck -1.4191 -2.33224 2.339
head 0.532072 -1.1515 0.218567
rclavicle 2.26615e-014 1.55052e-014
rhumerus -57.9432 -18.4828 -69.0505
rradius 55.6301
rwrist -8.51887
rhand -40.1521 -47.2817
rfingers 7.12502
rthumb -13.1144 -76.8493
lclavicle 2.26615e-014 1.55052e-014
lhumerus -8.57851 -0.129387 73.2658
lradius 109.461
lwrist 44.0119
lhand 5.40545 9.16023
lfingers 7.12502
lthumb 30.7566 36.6078
rfemur -52.3766 0.706357 13.8521
rtibia 31.6632
rfoot -9.17749 -8.58112
rtoes -4.49339
lfemur -7.04463 10.6372 -28.2818
ltibia 24.3405
lfoot -30.7331 -16.3123
ltoes 22.6913
626
root 4.77324 16.5744 -9.60725 13.8008 12.1098 4.30867
lowerback 2.35067 -3.00428 -2.32798
upperback 2.51005 -4.01142 -1.36942
thorax 1.32142 -2.0246 -0.0594036
lowerneck -5.86236 -1.68323 2.69891
upperneck -1.60161 -2.42479 2.29297
head 0.467015 -1.20196 0.205863
rclavicle -6.75868e-015 -1.2921e-014
rhumerus -58.028 -18.7417 -68.979
rradius 56.3128
rwrist -8.54641
rhand -40.1625 -46.9367
rfingers 7.12502
rthumb -13.1244 -76.5036
lclavicle -6.75868e-015 -1.2921e-014
lhumerus -9.41846 -0.218006 73.4512
lradius 109.747
lwrist 43.3215
lhand 5.04478 9.13921
lfingers 7.12502
lthumb 30.4127 36.651
rfemur -51.6712 2.25837 12.5719
rtibia 29.6271
rfoot -9.38304 -9.3971
rtoes -3.80029
lfemur -5.93 10.115 -28.1404
ltibia 23.7674
lfoot -30.9362 -15.5254
ltoes 22.602
627
root 4.78018 16.5361 -9.41303 13.6795 12.0078 4.32367
lowerback 2.40391 -2.91035 -2.32763
upperback 2.54487 -3.88732 -1.35563
thorax 1.32626 -1.96297 -0.0447083
lowerneck -5.83129 -1.73581 2.71292
upperneck -1.78805 -2.48915 2.21488
head 0.402692 -1.23862 0.180148
rclavicle -2.36554e-014 -1.63003e-014
rhumerus -58.0877 -18.8816 -69.019
rradius 56.8691
rwrist -8.67026
rhand -39.9326 -45.4401
rfingers 7.12502
rthumb -12.9028 -75.0212
lclavicle -2.36554e-014 -1.63003e-014
lhumerus -10.395 -0.122929 73.6216
lradius 109.755
lwrist 42.7486
lhand 4.09967 9.18001
lfingers 7.12502
lthumb 29.5109 36.8547
rfemur -51.0886 3.64421 11.569
rtibia 28.1904
rfoot -9.48602 -9.89242
rtoes -2.60487
lfemur -4.7794 9.53967 -27.9915
ltibia 23.2773
lfoot -31.147 -14.5803
ltoes 22.2822
628
root 4.78815 16.4956 -9.2184 13.4969 11.819 4.29566
lowerback 2.50701 -2.80111 -2.2846
upperback 2.6018 -3.74334 -1.3392
thorax 1.32292 -1.89082 -0.0492767
lowerneck -5.83583 -1.76508 2.73658
upperneck -1.99172 -2.52414 2.1208
head 0.338799 -1.26076 0.148504
rclavicle 3.52843e-014 6.16232e-015
rhumerus -58.0942 -18.9075 -69.1604
rradius 57.2886
rwrist -8.83609
rhand -39.419 -42.9647
rfingers 7.12502
rthumb -12.4077 -72.5764
lclavicle 3.52843e-014 6.16232e-015
lhumerus -11.4971 0.138275 73.766
lradius 109.481
lwrist 42.2941
lhand 2.63421 9.23757
lfingers 7.12502
lthumb 28.111 37.1507
rfemur -50.6202 4.67302 11.0298
rtibia 27.3493
rfoot -9.4973 -9.94325
rtoes -1.56884
lfemur -3.63549 8.95296 -27.838
ltibia 22.9245
lfoot -31.3742 -13.5175
ltoes 21.7191
629
root 4.79759 16.4536 -9.02312 13.2812 11.5479 4.23212
lowerback 2.65374 -2.67667 -2.18652
upperback 2.66176 -3.5795 -1.33251
thorax 1.29401 -1.80763 -0.0926395
lowerneck -5.87574 -1.77596 2.77095
upperneck -2.21209 -2.53648 2.03379
head 0.275747 -1.27154 0.117566
rclavicle -6.06293e-015 -1.19271e-014
rhumerus -58.0596 -18.8467 -69.3872
rradius 57.5622
rwrist -8.96644
rhand -38.5776 -39.7952
rfingers 7.12502
rthumb -11.5963 -69.4543
lclavicle -6.06293e-015 -1.19271e-014
lhumerus -12.7272 0.503087 73.8575
lradius 108.928
lwrist 41.9822
lhand 0.660463 9.31178
lfingers 7.12502
lthumb 26.2228 37.5201
rfemur -50.2401 5.22382 11.04
rtibia 27.0506
rfoot -9.45079 -9.43966
rtoes -0.4637
lfemur -2.55412 8.39061 -27.6934
ltibia 22.7605
lfoot -31.5992 -12.4003
ltoes 20.9853
630
root 4.80849 16.4117 -8.82701 13.0659 11.2057 4.14844
lowerback 2.81494 -2.53995 -2.05385
upperback 2.71571 -3.39905 -1.33179
thorax 1.24869 -1.71541 -0.161242
lowerneck -5.95261 -1.77353 2.80671
upperneck -2.45269 -2.53232 1.95786
head 0.212861 -1.27405 0.0898983
rclavicle -3.43897e-014 1.07344e-014
rhumerus -57.9796 -18.7142 -69.6668
rradius 57.6793
rwrist -8.98426
rhand -37.3981 -36.2245
rfingers 7.12502
rthumb -10.4586 -65.9444
lclavicle -3.43897e-014 1.07344e-014
lhumerus -14.0604 0.923023 73.9014
lradius 108.104
lwrist 41.8431
lhand -1.7789 9.4612
lfingers 7.12502
lthumb 23.8854 37.9959
rfemur -49.9321 5.31448 11.5325
rtibia 27.2009
rfoot -9.33642 -8.45731
rtoes 0.791981
lfemur -1.59369 7.89143 -27.5722
ltibia 22.8309
lfoot -31.7999 -11.2978
ltoes 20.0892
